<?xml version="1.0" encoding="UTF-8"?>
<svg id="Capa_2" data-name="Capa 2" xmlns="http://www.w3.org/2000/svg" viewBox="0 0 355.87 135.46">
  <defs>
    <style>
      .cls-1 {
        fill: #e09e7d;
      }

      .cls-2 {
        fill: #374058;
      }
    </style>
  </defs>
  <g id="Capa_1-2" data-name="Capa 1">
    <g>
      <path class="cls-1" d="M340.29,119.08c2.04-1.66,5.85-2.77,7.39.07,1.35,2.49,1.17,9.29.84,12.18-.22,1.95-.48,3.01-2.82,2.66-2.48-.37-1.13-5.01-1.05-6.76.04-1.04.16-4.11-.44-4.83-.75-.91-2.98.06-3.47.92-.37.65-.29,4.51-.23,5.53.09,1.42,1.44,4.41-.49,5-3.38,1.04-3.48-1.51-3.64-4.08-.29-4.64.06-9.82.25-14.46.3-1.56-.78-3.89.46-5.05.76-.7,2.83-.99,3.31.11.66,1.49-.61,8.03-.11,8.72Z"/>
      <path class="cls-1" d="M303.88,121.29c1.17,1.26,3.29,2.09,4.51,3.41,5.42,5.89-2.23,13.88-9.25,9.48-1.91-1.19-3.03-2.58-1.31-4.6,1.51-1.76,2.2-.07,3.52.56,1.71.82,4.64.62,3.95-1.89-.59-2.15-4.83-3.63-6.19-5.52-4.36-6.07,5.68-13.62,9.86-8.71,1.13,1.33,1.15,3.72-.11,4.95-.83.82-2.36-.72-3.44-.94-2.61-.54-3.22,1.45-1.54,3.26Z"/>
      <path class="cls-1" d="M320.62,132.78c-.31-.28-.68-1.1-.76-1.53-.53-.09-.73.52-1.16.79-2.54,1.59-5.64,1.45-6.8-1.66-1.02-2.73-1.07-11.66-.01-14.33.84-2.11,3.6-1.46,3.8-.01.13.91-.57,3.59-.64,4.77-.08,1.33-.47,9.94,2.77,7.36,1.84-1.47,1.42-8.34,1.58-10.58.11-1.59.11-2.72,1.99-2.78s1.83,1.48,1.93,3.01c.26,3.92-.11,8.2-.02,12.18.02,1.03.68,1.6-.21,2.53-.68.72-1.68.98-2.47.26Z"/>
      <path class="cls-1" d="M334.27,114.31c.72.75.36,3.28-.42,3.95-1.25,1.08-3.4-1.98-4.82.46-1.05,1.81,3.18,3.76,4.25,4.72,4.25,3.79,1.37,10.18-4.12,10.34-1.85.05-4.88-1.07-4.7-3.32.32-4.06,5.38.67,6.53-1.75s-3.57-4.32-4.91-5.65c-3.21-3.19-.58-7.53,2.96-8.92,1.04-.41,4.45-.64,5.23.17Z"/>
      <path class="cls-1" d="M351.92,118.44c.63-.19,2.39.06,2.56.8.08.36-.24.86-.21,1.32.22,3.39.58,7.91.25,11.27-.22,2.23-3.84,2.27-4.14.67-.25-1.36-.07-4.87-.02-6.43.06-1.78.16-4.74.47-6.41.07-.39.7-1.11,1.08-1.22Z"/>
      <path class="cls-1" d="M354.44,116.26c-2.29,2.57-5.73-1.57-2.67-3.48,2.28-1.42,4.53,1.4,2.67,3.48Z"/>
      <g>
        <path class="cls-1" d="M348.7,36.55c2.82,0,7.21,2.9,7.17,5.97-.04,2.89-3.55,7.07-6.39,7.61-3.68.7-8.52-1.82-8.28-5.97.19-3.28,4.08-7.6,7.5-7.61Z"/>
        <g>
          <path class="cls-2" d="M33.97,49.65c.53-5.57,4.08-10.79,8.11-14.49,1.85-1.7,4.39-2.92,5.72-5.06,2.93-.64,5.54-3.95,7.97-5.23.23-.12.43-.14.69-.12.19,2.01,1.6,3.94,2.17,5.85,3.5,11.55.45,22.98-6.35,32.55-1.47,2.06-2.79,3.23-3.97,5.67-5.08,10.46-4.5,22.77-1.33,33.68.35,1.19,1.07,2.62,1.34,3.72.1.41.12.41-.24.69-1.35-1.56-2.89-2.98-4.23-4.54-4.9-5.69-8.5-12.58-10.51-19.73-.63-2.25-.8-5.06-.97-7.4-.21-.21-3.6.44-4.24.47-10.95.6-19.53-2.19-27.43-9.78-.21-.21-.69-.31-.7-.45,0-.56,2.5-2.02,3.07-2.45,7.81-5.76,16.4-13.03,27.04-10.91,1.3.26,2.54.91,3.85,1.08.08-1.15-.11-2.42,0-3.56Z"/>
          <path class="cls-1" d="M56.23,76.84c.02,1.02-1.85,5.66-2.19,7.34-1.05,5.2-1.09,10.86-.11,16.07-.9,2.1-1.78,4.22-2.8,6.26-.16.32-.25.54-.53.17-4.93-12.82-5.91-28.62,1.61-40.62.99,1.54,1.73,3.27,2.35,4.99.44,1.23,1.65,4.68,1.67,5.79Z"/>
          <g>
            <g>
              <path class="cls-2" d="M56.23,76.84l3.47-6.18,3.87.9c.6-5.27,1.51-10.5,2.27-15.75,2.5-17.26,4.77-34.27,7.58-51.4.37-1.71-.46-4.19,2.02-4.4,3.54-.31,2.03,4.13,1.74,6.1-.08.55-.19,1.03-.27,1.56-3.29,21.46-7.27,42.82-10.81,64.24.21.32,1.06-.21.91.45l-5.72,22.76c-.07.9.09,2.22,1.02,2.61L85.83,2.66c1.68-1.19,3.99-.77,4.12,1.53l-18.57,67.73c-.02.38-.08.36.29.29.69-.12,1.36-.44,2.08-.4,1.3.07,3.52,1.09,3.82,2.51-.17.17-1.48-.87-1.84-1.03-4.05-1.81-5.35,1.76-5.9,5.11-1.73,10.56,3.53,31.23,10.83,39.3,2.92,3.22,6.8,4.58,8.61-.46.57.28.09,1.64-.14,2.04-.29.53-1.86,2.2-2.4,2.42-1,.4-1.76-.08-2.63-.1-6.92-.21-15.1-.93-21.38-4.09-.83-.42-2.08-1.2-2.72-1.87-2.39-2.47-5.4-11.85-6.07-15.39-.99-5.21-.94-10.87.11-16.07.34-1.68,2.21-6.32,2.19-7.34Z"/>
              <g>
                <path class="cls-1" d="M89.5,105.07c-.44.39-.14,1.13-.28,1.67-.74,2.95-5.7,6.49-8.64,7.03l-4.36-8.1,3.51-3.84,3.81-5.94c1.46,2.92,3.89,6.6,5.97,9.18Z"/>
                <path class="cls-1" d="M79.64,83.5c-.14,3.09,1.51,6.79,2.75,9.64-1.33,2.55-2.55,4.96-4.37,7.22-.39.48-2.46,3.08-2.97,2.65-1.34-4.39-2.79-8.78-3.23-13.39,2.15-1.22,4.23-2.64,5.99-4.39.61-.61.94-1.58,1.83-1.73Z"/>
                <path class="cls-1" d="M71.37,80.86c.4-4.15,2.79-7.72,6.78-4.02,1.71,1.59,1.4,1.95.29,3.98-1.33,2.44-4.47,5.37-7.07,6.35.14-2.03-.19-4.31,0-6.31Z"/>
                <path class="cls-1" d="M89.27,110.81c.23,4.52-2.36,9.4-6.88,4.93,2.6-1.36,4.85-2.79,6.88-4.93Z"/>
              </g>
            </g>
            <path class="cls-2" d="M79.64,83.5c.38-8.13,2.76-17.17,5.63-24.78.69-1.84,2.08-3.96,3.09-5.68.62-1.07,3.21-5.91,3.74-6.43,4.29-4.2,9.51-10.13,15.01-12.87.72-.36,1.88-.92,2.66-.68.48.14,3.7,2.75,4.3,3.28,9.23,8.17,14.88,21.22,15.6,33.51.11,1.89-.29,1.31-1.13,2.36-1.23,1.53-2.01,2.66-3.58,3.95-6.08,4.96-14.32,5.59-21.91,5.29,0,.33.65.45.93.56,6.87,2.8,14.45,2.63,21.1-.56.1,3.41-.04,6.8-.76,10.14-2.2,10.29-9.4,19.62-19.29,23.63-1.49.61-2.05.97-3.64.12-4.26-2.29-8.83-6.45-11.88-10.25-2.07-2.58-4.51-6.26-5.97-9.18-.36-.73-.78-1.92-1.15-2.75-1.24-2.85-2.9-6.55-2.75-9.64ZM100.97,56.75c0-2.28-1.85-4.13-4.13-4.13s-4.13,1.85-4.13,4.13,1.85,4.13,4.13,4.13,4.13-1.85,4.13-4.13Z"/>
          </g>
        </g>
        <g>
          <path class="cls-2" d="M277.94,100.64c-9.14-5.83-8.39-21.94-7.65-31.47.27-3.44,1.23-13.11,2.47-15.89,1.47-3.31,8.19-3.4,9.12.16.71,2.71-.72,7.97-1.04,10.91-.55,5.15-1.64,17.75.79,22.16,1.55,2.81,4.8,2.02,6.42-.26.82-1.15,1.66-3.8,1.91-5.21,1.36-7.88.54-15.39.77-23.1.02-.6.6-3.73.77-4.28.32-1.02,2.06-1.3,3-1.36,1.22-.07,4.49.24,5.27,1.15,1.33,1.55,1.37,7.78,1.5,9.98.69,12.27,1.85,32.37-12.39,37.63-2.79,1.03-8.38,1.21-10.94-.42Z"/>
          <path class="cls-2" d="M244.01,56.89c-.25-.07-1.07-1.17-1.27-1.48-2-3.14-1.09-8.66,2.46-10.41,4.03-1.98,18.31-.76,22.42,1.36,5.28,2.73,2.17,8.94.48,13.05-3.19,7.77-7.71,14.86-11.32,22.41-.56,1.18-2.48,4.94-2.57,5.94-.02.23-.08.44.15.59.83.56,5.65.53,6.84.4,2.55-.27,4.7-2.57,6.06.88,1.29,3.26,1.2,8.96-2.65,10.33-4.41,1.56-14.09,1-18.41-.97-7.15-3.26-4.1-11.26-1.65-16.79s5.21-10.85,7.8-16.07c1.43-2.88,3.02-5.71,4.53-8.55.23-.23-.1-.7-.25-.7h-12.62Z"/>
          <g>
            <path class="cls-2" d="M335.15,55.37c2.8,1.92,3.76,5.53,3.98,8.75.55,7.98-.14,17.17,0,25.23.05,2.86.22,9.8-1.17,12.14-1.67,2.81-7.7,3-9.7.59-1.85-2.23-1.06-9.81-.81-12.71-.6-5.21.9-11.49.24-16.55-.05-.42-.41-.29-.47-.49-.42-1.54.06-4.36-2.24-4.83-2.63-.54-8.08,2.43-8.49,5.17-.35,2.29-.02,6.47.17,8.89.4,5.14,1.77,10.75,1.84,15.85.04,3.13-2.43,4.12-4.88,4.95-.19.06-.18.39-.34.43-.57.13-3.7-.09-4.2-.33-.98-1.24-2.07-1.77-2.59-3.38-1.03-3.17-.6-5.27-.85-8.33-1.03-12.7-.64-25.57-.45-38.34.09-6.03-.55-15.94.74-21.5.83-3.59,1.86-3.98,5.56-3.61,2.17.21,5.55,1.96,6.03,4.3.78,3.79-.76,10.79-1.09,14.87-.19,2.33-.39,4.78-.47,7.1-.03.82-.1,5.29.12,5.64.18.28.31.26.58.11,1.15-.6,2.39-2.82,4.12-3.69,4.19-2.12,10.31-3.03,14.38-.25Z"/>
            <path class="cls-2" d="M343.56,101.35c-.45-.71-.71-4.27-.76-5.32-.5-10.43.49-21.21.46-31.67,0-1.59.12-5.81.75-7.07,1.11-2.21,6.17-1.65,7.86-.39,3.08,2.29,2.51,11.61,2.63,15.27.26,7.89.38,15.79.46,23.64,0,1.04.37,2.01.24,3.2-.45,4.14-7.21,5.01-10.26,3.38-.16-.09-1.33-.96-1.38-1.03Z"/>
          </g>
          <g>
            <path class="cls-2" d="M191.73,68.88c-.81-1.81-.1-3.65-.45-5.63-.11-.61-.45-1.01-.96-.39-.34.41-1.37,3.99-1.61,4.81-1.6,5.42-3.93,19.63-7.45,23.3-1.75,1.82-4.49,1.35-6.21-.23-3.79-3.48-6.49-18.19-8.48-23.65-.16-.44-.94-3.1-1.61-2.41,0,1.67-.52,3.28-.69,4.93-.98,9.84.22,19.57-.22,29.38-.09,2.08-.33,6.03-1.42,7.76-1.25,1.97-4.63,2.57-6.66,1.74-6.88-2.82-5.62-13.43-5.45-19.38.24-8.43,1.06-16.99,2.08-25.44.64-5.27,1.71-16.21,3.86-20.51,1.62-3.24,4.51-5.44,8.17-6.01,4.27-.67,6.01,4.2,7.24,7.38,1.32,3.42,2.37,7.63,3.31,11.42.86,3.47,1.54,7.02,2.39,10.46.14.13.61.16.7.1.28-.18,1.52-5.57,1.74-6.41,1.79-6.93,3.65-16.47,7.67-22.44.54-.8.94-1.69,1.78-2.36,4.17-3.34,7.99-1.4,10.09,2.94,1.04,2.17,1.54,4.75,1.92,7.01,2.77,16.46,3.62,33.18,4.57,49.84.15,2.6.85,5.39.44,8.02-.65,4.18-10.02,6.23-12.09,1.56-1.18-2.66-1-6.54-1.2-9.36-.51-7.19-.9-14.4-1.38-21.56-.07-1.07.22-4.2-.08-4.87Z"/>
            <path class="cls-2" d="M230.13,97.74c-.33-.24-1.76,1.7-2.17,2.07-2.34,2.1-5.65,2.75-8.73,2.53-9.05-.66-12.39-11.36-11.37-19.19.02-.15.77-2.31.93-2.75,1.19-3.31,2.13-3.89,4.27-6.29.27-.3.27-.74.39-.87.32-.34,2.93-1.54,3.58-1.82,2.38-1.01,7.14-2.64,9.37-3.06.51-.1,1.48.47,1.82-.68.1-.33-.08-3.03-.15-3.54-.33-2.43-.98-4.59-3.79-4.93-3.48-.42-6.55,3.04-9.34,2.45-.48-.1-1.83-.93-2.1-1.34-.24-.36-1.41-3.64-1.46-4.05-.68-5.78,6.86-9.24,11.57-9.67,18.95-1.74,16.13,18.81,16.6,31.53.19,5.17.62,10.42.71,15.59.03,1.72.33,6.54-.57,7.71s-4.22,1.78-5.56,1.4c-2.33-.66-3.67-2.79-3.98-5.08ZM229.44,78c-3.64.05-10.14,2.88-11.05,6.74-1.23,5.23,3.48,7.32,7.83,5.54.54-.22,3.21-1.9,3.21-2.29v-9.98Z"/>
          </g>
        </g>
      </g>
    </g>
  </g>
</svg>